<svg width="167" height="42" viewBox="0 0 167 42" fill="none" xmlns="http://www.w3.org/2000/svg">
<path d="M7.06055 3.61914H7.0752C7.08496 3.60938 7.09473 3.60449 7.10449 3.60449C7.09473 3.60449 7.08008 3.60938 7.06055 3.61914ZM37.3682 3.58984H37.3828H37.3975H37.3682ZM37.7051 2.6084C37.7539 2.69629 37.793 2.79883 37.8223 2.91602C37.8613 3.0332 37.8857 3.15527 37.8955 3.28223C37.915 3.40918 37.8857 3.50684 37.8076 3.5752C37.7393 3.64355 37.627 3.65332 37.4707 3.60449C37.4512 3.59473 37.4268 3.58984 37.3975 3.58984C37.4072 3.58984 37.417 3.58984 37.4268 3.58984C37.4463 3.58008 37.4658 3.5752 37.4854 3.5752C37.4756 3.5752 37.4609 3.58008 37.4414 3.58984C37.4219 3.58984 37.4023 3.58984 37.3828 3.58984H37.3682H37.3096C37.29 3.58984 37.2607 3.59961 37.2217 3.61914C37.1924 3.63867 37.168 3.64844 37.1484 3.64844L37.1338 3.66309C37.124 3.67285 37.1191 3.67773 37.1191 3.67773C37.0996 3.67773 37.0898 3.68262 37.0898 3.69238C36.8262 3.8584 36.5381 4.10742 36.2256 4.43945C35.6885 5.02539 35.0195 5.98242 34.2188 7.31055C33.5352 8.46289 32.876 9.62988 32.2412 10.8115C31.6162 11.9932 30.9473 13.3652 30.2344 14.9277C29.5215 16.4902 28.9893 17.6572 28.6377 18.4287C28.2959 19.2002 27.6953 20.6016 26.8359 22.6328C25.9766 24.6641 25.4541 25.8945 25.2686 26.3242C24.7803 27.4668 24.1211 29.1123 23.291 31.2607C22.4609 33.4092 21.8652 34.9229 21.5039 35.8018C21.2891 36.3389 20.9521 37.2129 20.4932 38.4238C20.0439 39.6445 19.6826 40.5771 19.4092 41.2217C19.3604 41.3877 19.2188 41.4463 18.9844 41.3975C18.3301 41.2412 17.7979 40.8604 17.3877 40.2549C16.9775 39.6592 16.7236 38.9951 16.626 38.2627C16.5186 37.4521 16.4746 36.2314 16.4941 34.6006C16.5039 33.292 16.5674 31.3389 16.6846 28.7412C16.7334 27.7158 16.8066 26.2607 16.9043 24.376C17.002 22.4912 17.0654 21.251 17.0947 20.6553C17.1436 19.6104 17.2314 18.1162 17.3584 16.1729C17.4854 14.2197 17.5635 13.0186 17.5928 12.5693C17.2021 13.2432 16.8652 13.8828 16.582 14.4883C16.0449 15.6016 15.4736 16.8467 14.8682 18.2236C14.2627 19.6006 13.7793 20.7139 13.418 21.5635C13.0664 22.4131 12.5244 23.7266 11.792 25.5039C11.0596 27.2812 10.5762 28.4482 10.3418 29.0049C9.52148 30.9873 8.5498 33.4775 7.42676 36.4756C7.26074 36.915 6.95801 37.6816 6.51855 38.7754C6.08887 39.8789 5.7666 40.7334 5.55176 41.3389L5.53711 41.3535V41.3682C5.44922 41.5146 5.23926 41.4609 4.90723 41.207C4.12598 40.5625 3.45215 39.7617 2.88574 38.8047C2.31934 37.8477 1.88477 36.915 1.58203 36.0068C1.28906 35.1084 1.03027 34.0879 0.805664 32.9453C0.288086 30.3281 0.175781 26.9688 0.46875 22.8672C0.703125 19.6738 1.15723 16.251 1.83105 12.5986C2.37793 9.64941 2.99805 6.97852 3.69141 4.58594C3.99414 3.57031 4.25293 2.79395 4.46777 2.25684C4.47754 2.24707 4.49707 2.19336 4.52637 2.0957C4.56543 1.98828 4.59473 1.91016 4.61426 1.86133C4.63379 1.8125 4.66797 1.74414 4.7168 1.65625C4.76562 1.56836 4.80957 1.5 4.84863 1.45117C4.8877 1.40234 4.93652 1.3584 4.99512 1.31934C5.06348 1.27051 5.12695 1.24609 5.18555 1.24609C5.72266 1.20703 6.26953 1.55859 6.82617 2.30078C6.875 2.36914 6.92871 2.45703 6.9873 2.56445C7.05566 2.67188 7.12402 2.80371 7.19238 2.95996C7.26074 3.10645 7.29004 3.24316 7.28027 3.37012C7.27051 3.49707 7.21191 3.5752 7.10449 3.60449C7.12402 3.59473 7.12891 3.58496 7.11914 3.5752C7.09961 3.5752 7.08008 3.58984 7.06055 3.61914H7.0166H7.06055V3.63379L6.94336 3.82422C6.875 3.9707 6.78223 4.2002 6.66504 4.5127C6.3916 5.23535 6.09375 6.19238 5.77148 7.38379C4.15039 13.3799 3.15918 19.3809 2.79785 25.3867C2.58301 28.8633 2.63672 31.9541 2.95898 34.6592C3.08594 35.6846 3.36426 36.8662 3.79395 38.2041C3.96973 38.7412 4.18457 39.2148 4.43848 39.625C4.72168 38.8633 5.1416 37.7256 5.69824 36.2119C6.26465 34.708 6.68945 33.5801 6.97266 32.8281C8.64258 28.3652 10.791 22.7793 13.418 16.0703C14.1406 14.1172 14.7021 12.6572 15.1025 11.6904C15.4346 10.8701 15.7227 10.2451 15.9668 9.81543C16.0645 9.63965 16.1475 9.5127 16.2158 9.43457C16.2939 9.35645 16.4014 9.29297 16.5381 9.24414C16.6748 9.19531 16.8311 9.21973 17.0068 9.31738C17.3096 9.44434 17.6025 9.6543 17.8857 9.94727C18.1787 10.2402 18.3789 10.5381 18.4863 10.8408C18.4961 10.8604 18.501 10.8848 18.501 10.9141C18.5107 10.9336 18.5156 10.958 18.5156 10.9873C18.5254 11.0166 18.5303 11.041 18.5303 11.0605C18.5596 11.1191 18.5742 11.168 18.5742 11.207C18.5742 12.2617 18.584 14.0342 18.6035 16.5244C18.6328 19.0049 18.6377 20.9141 18.6182 22.252C18.54 28.4336 18.5303 32.8672 18.5889 35.5527C18.6279 37.0859 18.6914 38.2334 18.7793 38.9951C18.877 38.7314 19.1748 37.9307 19.6729 36.5928C20.1807 35.2646 20.5713 34.2441 20.8447 33.5312C21.5283 31.7441 23.9307 25.709 28.0518 15.4258C28.335 14.6641 28.6523 13.8389 29.0039 12.9502C30.4004 9.37598 31.7041 6.51465 32.915 4.36621C33.4229 3.45801 33.7402 2.90625 33.8672 2.71094C34.6484 1.54883 35.3906 1.06543 36.0938 1.26074C36.748 1.44629 37.2852 1.89551 37.7051 2.6084ZM64.1309 14.2979C64.2188 14.3467 64.3115 14.4541 64.4092 14.6201C64.4678 14.7275 64.4531 14.7715 64.3652 14.752C62.9883 14.4688 61.4893 14.2832 59.8682 14.1953C58.2568 14.0977 56.8213 14.0684 55.5615 14.1074C54.3018 14.1367 52.7881 14.2148 51.0205 14.3418C50.8154 14.3516 50.5322 14.376 50.1709 14.415C48.042 19.9033 46.3379 24.4199 45.0586 27.9648C44.0918 30.6699 43.2861 33.1553 42.6416 35.4209C42.2217 36.8857 41.9482 37.8477 41.8213 38.3066C41.8018 38.3848 41.7676 38.5166 41.7188 38.7021C41.6797 38.8975 41.6455 39.0391 41.6162 39.127C41.5869 39.2246 41.5381 39.3369 41.4697 39.4639C41.4111 39.6006 41.3281 39.7031 41.2207 39.7715C41.1133 39.8496 40.9863 39.9131 40.8398 39.9619C40.6152 40.0303 40.3662 39.9131 40.0928 39.6104C39.8291 39.3174 39.6631 39.0488 39.5947 38.8047C39.4385 38.248 39.4238 37.8232 39.5508 37.5303C39.6484 37.3154 39.8047 36.9199 40.0195 36.3438C40.1562 35.9922 40.3662 35.46 40.6494 34.7471C40.9326 34.0342 41.1426 33.4971 41.2793 33.1357C41.8848 31.5732 42.4805 29.9326 43.0664 28.2139C43.6621 26.4951 44.3262 24.498 45.0586 22.2227C45.8008 19.9375 46.3477 18.2773 46.6992 17.2422C46.9531 16.4805 47.2363 15.6211 47.5488 14.6641C47.5391 14.6641 47.5244 14.6689 47.5049 14.6787C47.4951 14.6787 47.4854 14.6787 47.4756 14.6787C46.3818 16.9346 45.3369 19.0098 44.3408 20.9043C42.8564 23.7266 41.6211 25.9141 40.6348 27.4668C40.6055 27.5156 40.5322 27.6328 40.415 27.8184C40.2979 28.0039 40.2148 28.1309 40.166 28.1992C40.127 28.2578 40.0537 28.3701 39.9463 28.5361C39.8389 28.7021 39.751 28.8291 39.6826 28.917C39.624 28.9951 39.541 29.1074 39.4336 29.2539C39.3359 29.3906 39.248 29.5078 39.1699 29.6055C39.0918 29.7031 38.999 29.8105 38.8916 29.9277C38.7939 30.0352 38.6963 30.1377 38.5986 30.2354C38.1689 30.6455 37.7686 30.8164 37.3975 30.748C37.2412 30.7188 37.0166 30.6016 36.7236 30.3965C36.0889 30.0645 35.5518 29.6152 35.1123 29.0488C34.6729 28.4824 34.3848 27.8623 34.248 27.1885C34.209 27.2471 34.1357 27.3496 34.0283 27.4961C33.9307 27.6426 33.8574 27.7549 33.8086 27.833C33.457 28.3701 32.9297 29.166 32.2266 30.2207C31.1035 31.9004 30.4639 32.8379 30.3076 33.0332C30.1416 33.2383 29.9854 33.3994 29.8389 33.5166C29.8193 33.5264 29.7949 33.5459 29.7656 33.5752C29.7363 33.6045 29.7119 33.6289 29.6924 33.6484C29.6533 33.6777 29.5996 33.7021 29.5312 33.7217L29.5459 33.7363H29.4727C29.0723 33.7461 28.7012 33.5703 28.3594 33.209C28.0078 32.8477 27.7588 32.457 27.6123 32.0371C27.4951 31.6953 27.4219 31.3438 27.3926 30.9824C27.3535 30.6113 27.373 30.2207 27.4512 29.8105C27.5293 29.4004 27.6074 29.0391 27.6855 28.7266C27.7539 28.4141 27.8809 28.0283 28.0664 27.5693C28.252 27.1104 28.3936 26.7734 28.4912 26.5586C28.5889 26.334 28.7451 25.9971 28.96 25.5479C29.5361 24.3174 30.1465 23.1943 30.791 22.1787C30.8105 22.1494 30.8643 22.0664 30.9521 21.9297C31.04 21.793 31.0986 21.7051 31.1279 21.666C31.1572 21.6172 31.2109 21.5342 31.2891 21.417C31.377 21.29 31.4404 21.2021 31.4795 21.1533C31.5186 21.0947 31.5771 21.0117 31.6553 20.9043C31.7432 20.7969 31.8164 20.7139 31.875 20.6553C31.9336 20.5869 32.002 20.5137 32.0801 20.4355C32.1582 20.3477 32.2363 20.2744 32.3145 20.2158C32.3926 20.1475 32.4707 20.084 32.5488 20.0254C32.8027 19.8398 33.0713 19.7471 33.3545 19.7471C33.6475 19.7471 33.916 19.8203 34.1602 19.9668C34.4141 20.1133 34.6436 20.2939 34.8486 20.5088C35.0635 20.7236 35.249 20.9629 35.4053 21.2266C35.5127 21.4023 35.6201 21.6367 35.7275 21.9297C36.1768 21.0898 36.5039 20.4648 36.709 20.0547C36.8848 19.6836 37.2949 19.7568 37.9395 20.2744C38.252 20.5381 38.4912 20.8164 38.6572 21.1094C38.8623 21.4414 38.9307 21.6807 38.8623 21.8271C38.7549 22.0713 38.418 22.7842 37.8516 23.9658C37.2949 25.1377 36.9092 26.0557 36.6943 26.7197C36.4307 27.5693 36.3281 28.2041 36.3867 28.624C36.3867 28.6436 36.3916 28.6777 36.4014 28.7266C36.4111 28.7656 36.4209 28.7949 36.4307 28.8145C36.4404 28.8242 36.4453 28.8438 36.4453 28.873C36.4453 28.8926 36.4502 28.9072 36.46 28.917L36.4746 28.9463L36.5039 29.0049C36.5234 29.0244 36.5479 29.0488 36.5771 29.0781C36.6064 29.0977 36.6309 29.1123 36.6504 29.1221C36.6602 29.1123 36.6797 29.1074 36.709 29.1074C36.7383 29.0977 36.7578 29.0928 36.7676 29.0928C36.7871 29.083 36.8018 29.0781 36.8115 29.0781C37.0459 28.9316 37.2852 28.7461 37.5293 28.5215C38.1641 27.9355 38.9697 26.915 39.9463 25.46C41.9092 22.5498 44.0186 19.0049 46.2744 14.8252C45.415 14.9424 44.7754 15.0352 44.3555 15.1035C43.8965 15.1719 43.1396 15.3086 42.085 15.5137C42.9053 15.709 43.6914 15.9678 44.4434 16.29C44.6289 16.3682 44.7607 16.5 44.8389 16.6855C44.8486 16.7051 44.8535 16.7295 44.8535 16.7588C44.8633 16.7881 44.8682 16.8223 44.8682 16.8613C44.8682 16.8906 44.8584 16.9102 44.8389 16.9199C44.8193 16.9297 44.79 16.9297 44.751 16.9199C43.5205 16.5293 42.2217 16.3242 40.8545 16.3047C40.3174 16.3047 39.6631 16.3486 38.8916 16.4365C38.2666 16.5244 37.9395 16.5684 37.9102 16.5684C37.6562 16.5879 37.4658 16.5879 37.3389 16.5684C37.2607 16.5488 37.1973 16.5293 37.1484 16.5098V16.5244C37.1289 16.5439 37.085 16.5391 37.0166 16.5098C36.9873 16.5 36.958 16.4854 36.9287 16.4658C36.8994 16.4463 36.875 16.4268 36.8555 16.4072C36.8359 16.3877 36.8115 16.3682 36.7822 16.3486C36.7627 16.3193 36.7432 16.2949 36.7236 16.2754C36.7139 16.2559 36.6992 16.2314 36.6797 16.2021C36.6699 16.1631 36.6602 16.1387 36.6504 16.1289C36.6406 16.1094 36.626 16.0801 36.6064 16.041C36.5869 16.002 36.5723 15.9727 36.5625 15.9531C36.084 15.5234 35.7764 15.0986 35.6396 14.6787C35.5518 14.3857 35.6104 14.2197 35.8154 14.1807C36.1768 14.1025 36.5625 14.0342 36.9727 13.9756C37.3828 13.917 37.8467 13.8633 38.3643 13.8145C38.8818 13.7559 39.2725 13.7119 39.5361 13.6826C39.8291 13.6436 41.04 13.5361 43.1689 13.3604C44.6826 13.2432 46.0254 13.1602 47.1973 13.1113C47.4707 12.6035 47.8809 11.8369 48.4277 10.8115C48.9746 9.77637 49.3848 9 49.6582 8.48242C50.0391 7.45703 50.293 6.7832 50.4199 6.46094C50.5469 6.14844 50.874 6.16309 51.4014 6.50488C51.8896 6.81738 52.2461 7.18848 52.4707 7.61816C52.5977 7.87207 52.627 8.07227 52.5586 8.21875C52.373 8.64844 52.1826 9.11719 51.9873 9.625C51.792 10.123 51.582 10.6748 51.3574 11.2803C51.1426 11.876 50.9717 12.3447 50.8447 12.6865C50.835 12.7256 50.8154 12.7793 50.7861 12.8477C50.7666 12.9062 50.7471 12.9502 50.7275 12.9795C52.6611 12.9307 54.9414 12.9648 57.5684 13.082C58.5254 13.1309 59.292 13.1797 59.8682 13.2285C60.4443 13.2773 61.1377 13.3945 61.9482 13.5801C62.7686 13.7559 63.4961 13.9951 64.1309 14.2979ZM36.4746 28.9756L36.46 28.9609H36.4453L36.4746 28.9756ZM36.5625 29.1074C36.5625 29.0879 36.5527 29.0684 36.5332 29.0488L36.5625 29.1074ZM34.1455 21.3438L34.1309 21.3291L34.1455 21.3438ZM28.5791 32.2861C28.4717 32.2471 28.418 32.2373 28.418 32.2568C28.418 32.2568 28.4326 32.2666 28.4619 32.2861H28.5205H28.5498L28.5352 32.3008H28.5498C28.5596 32.3008 28.5645 32.3008 28.5645 32.3008C28.5645 32.291 28.5693 32.2861 28.5791 32.2861ZM28.5205 32.3008H28.5352H28.5205ZM29.3555 33.209C29.375 33.1992 29.3701 33.1602 29.3408 33.0918L29.3555 33.209ZM33.3838 26.4561C33.9795 25.6357 34.3115 25.1816 34.3799 25.0938C34.4873 24.6836 34.6338 24.2441 34.8193 23.7754C34.79 23.6484 34.7461 23.458 34.6875 23.2041C34.6387 22.9502 34.5996 22.7598 34.5703 22.6328C34.502 22.3984 34.4531 22.2471 34.4238 22.1787L34.3945 22.208C34.1406 22.4814 33.8867 22.7891 33.6328 23.1309C32.5586 24.625 31.5723 26.5098 30.6738 28.7852C30.5273 29.1465 30.2393 29.9521 29.8096 31.2021C29.8193 31.1826 29.8389 31.1582 29.8682 31.1289C29.8975 31.0898 29.9219 31.0605 29.9414 31.041C30.3906 30.5039 31.0596 29.6299 31.9482 28.4189C32.1143 28.1943 32.3535 27.8672 32.666 27.4375C32.9883 26.998 33.2275 26.6709 33.3838 26.4561ZM58.2715 24.6982C58.3203 24.6494 58.3887 24.6592 58.4766 24.7275C58.5645 24.7861 58.6377 24.8643 58.6963 24.9619C58.7646 25.0596 58.7842 25.1377 58.7549 25.1963C58.4814 25.6846 58.1738 26.1924 57.832 26.7197C57.4902 27.2471 57.0996 27.8281 56.6602 28.4629C56.2305 29.0977 55.9033 29.5908 55.6787 29.9424C54.9756 31.0166 54.3506 31.8857 53.8037 32.5498C53.2959 33.1455 52.8516 33.5557 52.4707 33.7803C51.8457 34.1318 51.084 34.0244 50.1855 33.458C50.127 33.4189 50.083 33.3945 50.0537 33.3848C49.3896 33.0137 48.8428 32.4912 48.4131 31.8174C47.9834 31.1338 47.749 30.416 47.71 29.6641C47.6025 27.7402 48.4473 25.3867 50.2441 22.6035C50.957 21.5098 51.626 20.6943 52.251 20.1572C52.6025 19.8447 52.915 19.6543 53.1885 19.5859C53.9697 19.3809 54.7803 19.6982 55.6201 20.5381C55.9619 20.8799 56.1572 21.1875 56.2061 21.4609C56.2939 21.5586 56.3574 21.6465 56.3965 21.7246C56.5918 22.0566 56.626 22.291 56.499 22.4277C56.4697 22.4473 56.4307 22.4766 56.3818 22.5156C56.3428 22.5547 56.3135 22.5889 56.2939 22.6182C56.2646 22.6475 56.2256 22.7012 56.1768 22.7793C56.1279 22.8477 56.0889 22.8965 56.0596 22.9258C56.001 22.9941 55.791 23.2871 55.4297 23.8047C55.2539 24.0488 54.5557 24.9619 53.335 26.5439C53.3154 26.5732 53.2812 26.5732 53.2324 26.5439C53.1836 26.5049 53.1396 26.4561 53.1006 26.3975C53.0615 26.3389 53.0518 26.2949 53.0713 26.2656C53.335 25.8066 53.6768 25.2549 54.0967 24.6104C54.4678 24.0244 54.7314 23.5752 54.8877 23.2627C55.1123 22.7939 55.2197 22.4229 55.21 22.1494C55.21 22.0518 55.1904 21.9248 55.1514 21.7686C55.0537 21.7686 55.0049 21.7637 55.0049 21.7539C54.8486 21.832 54.7314 21.9053 54.6533 21.9736C54.4189 22.1494 54.1406 22.4277 53.8184 22.8086C52.5098 24.3516 51.4893 26.1143 50.7568 28.0967C50.3662 29.1611 50.1367 30.1426 50.0684 31.041C50.0586 31.1973 50.0586 31.3584 50.0684 31.5244C50.0684 31.5928 50.0781 31.6855 50.0977 31.8027C50.0977 31.8223 50.1025 31.8418 50.1123 31.8613C50.1221 31.8809 50.1318 31.9004 50.1416 31.9199C50.2295 32.0762 50.3369 32.1885 50.4639 32.2568C50.6201 32.335 50.8057 32.3594 51.0205 32.3301L51.3721 32.2422C51.4209 32.2227 51.5479 32.1689 51.7529 32.0811C52.0557 31.8857 52.5098 31.4609 53.1152 30.8066C53.6719 30.2109 54.502 29.2148 55.6055 27.8184C56.7188 26.4121 57.6074 25.3721 58.2715 24.6982ZM50.5225 32.3887L50.5371 32.4033H50.5811C50.5713 32.3936 50.5615 32.3887 50.5518 32.3887C50.542 32.3887 50.5322 32.3887 50.5225 32.3887ZM49.9072 31.8174C49.8877 31.7979 49.8486 31.7686 49.79 31.7295C49.8096 31.749 49.8486 31.7783 49.9072 31.8174ZM72.1143 24.7568C72.1533 24.7178 72.207 24.7227 72.2754 24.7715C72.3535 24.8203 72.417 24.8887 72.4658 24.9766C72.5146 25.0547 72.5244 25.1133 72.4951 25.1523C71.5967 26.5 70.625 27.8232 69.5801 29.1221C69.5312 29.1807 69.3848 29.3662 69.1406 29.6787C68.8965 29.9912 68.7256 30.2061 68.6279 30.3232C68.5303 30.4307 68.3789 30.6016 68.1738 30.8359C67.9785 31.0605 67.7979 31.2559 67.6318 31.4219C67.4658 31.5879 67.29 31.749 67.1045 31.9053C66.8018 32.1494 66.46 32.2324 66.0791 32.1543C66.0303 32.1445 65.9326 32.1104 65.7861 32.0518C65.2979 31.8955 64.8682 31.5928 64.4971 31.1436C64.1357 30.6943 63.8916 30.2061 63.7646 29.6787C63.6963 29.415 63.6572 29.1416 63.6475 28.8584C63.6377 28.5654 63.6621 28.2578 63.7207 27.9355C63.7793 27.6133 63.833 27.3301 63.8818 27.0859C63.9404 26.8418 64.0332 26.5391 64.1602 26.1777C64.2969 25.8066 64.3994 25.5381 64.4678 25.3721C64.5361 25.1963 64.6484 24.918 64.8047 24.5371C64.8535 24.4297 64.8877 24.3467 64.9072 24.2881C65.3955 23.126 65.7227 22.3203 65.8887 21.8711C65.8789 21.8809 65.8643 21.9004 65.8447 21.9297C65.8252 21.959 65.8057 21.9785 65.7861 21.9883C65.1611 22.5938 64.3506 23.5801 63.3545 24.9473C62.1729 26.5684 61.1816 28.0039 60.3809 29.2539C59.541 30.5527 59.0234 31.3779 58.8281 31.7295C58.7793 31.8174 58.6572 32.0273 58.4619 32.3594C58.2666 32.6914 58.1201 32.9502 58.0225 33.1357C57.7881 33.5752 57.5391 33.8535 57.2754 33.9707C57.2363 33.9902 57.2021 34.0049 57.1729 34.0146V34C57.0068 34.0293 56.792 33.9512 56.5283 33.7656C56.4209 33.6875 56.3135 33.5947 56.2061 33.4873C55.835 33.292 55.5664 32.9893 55.4004 32.5791C55.1953 32.0225 55.1709 31.583 55.3271 31.2607C55.376 31.1533 55.4492 30.9922 55.5469 30.7773C55.6348 30.5527 55.7031 30.3867 55.752 30.2793C56.3086 29.0488 56.6699 28.2432 56.8359 27.8623C57.3242 26.71 57.8076 25.499 58.2861 24.2295C58.7646 22.9502 59.3018 21.4707 59.8975 19.791C60.5029 18.1113 60.9473 16.8809 61.2305 16.0996C61.3867 15.6797 61.6309 15.0107 61.9629 14.0928C62.2949 13.165 62.5537 12.4375 62.7393 11.9102C62.9346 11.3828 63.1836 10.7383 63.4863 9.97656C63.7891 9.21484 64.082 8.52148 64.3652 7.89648C64.5117 7.57422 64.8535 7.59375 65.3906 7.95508C65.8789 8.27734 66.2305 8.65332 66.4453 9.08301C66.5625 9.32715 66.5869 9.52246 66.5186 9.66895C66.3037 10.0986 66.0254 10.7188 65.6836 11.5293C65.3516 12.3398 65.1221 12.8867 64.9951 13.1699C63.5107 16.4902 61.9434 20.1816 60.293 24.2441C59.6582 25.7969 59.0918 27.3301 58.5938 28.8438C58.6523 28.7754 59.0527 28.2725 59.7949 27.335C61.2012 25.5479 62.3828 24.0488 63.3398 22.8379C63.4668 22.6719 63.7891 22.252 64.3066 21.5781C64.834 20.9043 65.2441 20.3916 65.5371 20.04C65.752 19.7764 65.9375 19.6299 66.0938 19.6006C66.2793 19.5713 66.4648 19.6201 66.6504 19.7471H66.6797C66.9629 19.7764 67.2461 19.9229 67.5293 20.1865C67.8125 20.4502 68.042 20.7334 68.2178 21.0361C68.5303 21.5732 68.5547 22.2959 68.291 23.2041C68.0957 23.8389 67.7686 24.7227 67.3096 25.8555C66.8604 26.9785 66.5625 27.75 66.416 28.1699C66.0449 29.2441 65.8252 30.0107 65.7568 30.4697V30.543C65.7666 30.543 65.7812 30.5381 65.8008 30.5283C65.8203 30.5186 65.835 30.5137 65.8447 30.5137C65.8545 30.5137 65.8643 30.5088 65.874 30.499C65.8936 30.4893 65.9082 30.4795 65.918 30.4697C65.9277 30.4697 65.9375 30.4648 65.9473 30.4551C66.123 30.3379 66.5039 30.0449 67.0898 29.5762C67.3438 29.3711 67.9834 28.7803 69.0088 27.8037C69.2432 27.5791 69.7168 27.1104 70.4297 26.3975C71.1523 25.6846 71.7139 25.1377 72.1143 24.7568ZM101.353 14.2979C101.44 14.3467 101.533 14.4541 101.631 14.6201C101.689 14.7275 101.675 14.7715 101.587 14.752C98.9795 14.2051 95.8545 14 92.2119 14.1367C90.9326 17.0176 89.5117 20.3818 87.9492 24.2295C87.2461 25.9678 86.6748 27.5107 86.2354 28.8584C86.9971 27.9111 87.4023 27.4033 87.4512 27.335C88.8574 25.5479 90.0391 24.0488 90.9961 22.8379C91.0449 22.7793 91.3477 22.3887 91.9043 21.666C92.4609 20.9336 92.8955 20.3916 93.208 20.04C93.4229 19.7764 93.6035 19.6299 93.75 19.6006C93.9355 19.5713 94.1211 19.6201 94.3066 19.7471H94.3359C94.6191 19.7764 94.8975 19.9229 95.1709 20.1865C95.4541 20.4502 95.6836 20.7334 95.8594 21.0361C96.1816 21.583 96.2109 22.3057 95.9473 23.2041C95.752 23.8291 95.4297 24.7031 94.9805 25.8262C94.5312 26.9492 94.2285 27.7256 94.0723 28.1553C93.7012 29.2295 93.4814 29.9961 93.4131 30.4551C93.4131 30.4648 93.4082 30.4795 93.3984 30.499C93.3984 30.5186 93.3984 30.5332 93.3984 30.543C93.4082 30.543 93.4229 30.5381 93.4424 30.5283C93.4717 30.5186 93.4912 30.5137 93.501 30.5137C93.5107 30.5137 93.5205 30.5088 93.5303 30.499C93.5498 30.4893 93.5645 30.4844 93.5742 30.4844L93.6035 30.4551C93.8379 30.2988 94.2188 30.0107 94.7461 29.5908C94.9707 29.4053 95.6104 28.8096 96.665 27.8037C96.8994 27.5791 97.373 27.1104 98.0859 26.3975C98.8086 25.6846 99.3701 25.1377 99.7705 24.7568C99.8096 24.7178 99.8633 24.7227 99.9316 24.7715C100.01 24.8203 100.073 24.8887 100.122 24.9766C100.171 25.0547 100.181 25.1133 100.151 25.1523C99.292 26.4414 98.3203 27.7598 97.2363 29.1074C97.1582 29.2051 97.0068 29.3955 96.7822 29.6787C96.5674 29.9521 96.4014 30.1572 96.2842 30.2939C96.1768 30.4307 96.0254 30.6113 95.8301 30.8359C95.6445 31.0508 95.4639 31.2461 95.2881 31.4219C95.1221 31.5879 94.9463 31.749 94.7607 31.9053C94.458 32.1494 94.1162 32.2324 93.7354 32.1543C93.6963 32.1543 93.5938 32.1152 93.4277 32.0371C92.9395 31.8809 92.5146 31.583 92.1533 31.1436C91.792 30.6943 91.5479 30.2061 91.4209 29.6787C91.1572 28.5752 91.5039 26.876 92.4609 24.5811C92.4707 24.542 92.4805 24.5127 92.4902 24.4932C92.5098 24.4639 92.5244 24.4297 92.5342 24.3906C92.5537 24.3516 92.5684 24.3174 92.5781 24.2881C93.0664 23.126 93.3936 22.3203 93.5596 21.8711L93.4424 21.9883C92.8174 22.5938 92.0068 23.5801 91.0107 24.9473C89.8291 26.5684 88.8379 28.0039 88.0371 29.2539C87.1973 30.5527 86.6797 31.3779 86.4844 31.7295C86.416 31.8467 86.2842 32.0615 86.0889 32.374C85.9033 32.6865 85.7617 32.9355 85.6641 33.1211C85.5762 33.2969 85.5029 33.4287 85.4443 33.5166C85.3955 33.6045 85.3174 33.6973 85.21 33.7949C85.1025 33.8926 84.9756 33.9658 84.8291 34.0146V34C84.6729 34.0195 84.458 33.9365 84.1846 33.751C84.0479 33.6533 83.9404 33.5654 83.8623 33.4873C83.4717 33.2822 83.2031 32.9795 83.0566 32.5791C82.9492 32.2861 82.8857 32.0664 82.8662 31.9199C82.8564 31.7734 82.8955 31.5586 82.9834 31.2754C83.0322 31.168 83.1055 31.0068 83.2031 30.792C83.3008 30.5674 83.374 30.4014 83.4229 30.2939C83.9111 29.2197 84.2725 28.4092 84.5068 27.8623C84.9951 26.7197 85.4785 25.5039 85.957 24.2148C86.4453 22.9258 86.9775 21.4561 87.5537 19.8057C88.1396 18.1455 88.584 16.9102 88.8867 16.0996C88.9551 15.8945 89.0674 15.5918 89.2236 15.1914C89.3799 14.7812 89.4922 14.4736 89.5605 14.2686L88.2422 14.3564C87.8711 14.376 87.5928 14.3955 87.4072 14.415C85.2783 19.9033 83.5742 24.4199 82.2949 27.9648C81.2793 30.8066 80.4688 33.292 79.8633 35.4209C79.4434 36.8857 79.1699 37.8477 79.043 38.3066C79.0234 38.3848 78.9941 38.5166 78.9551 38.7021C78.9062 38.8975 78.8672 39.0391 78.8379 39.127C78.8086 39.2246 78.7646 39.3369 78.7061 39.4639C78.6377 39.6006 78.5498 39.708 78.4424 39.7861C78.335 39.8643 78.208 39.9277 78.0615 39.9766C77.8271 40.0449 77.5781 39.9277 77.3145 39.625C77.0508 39.332 76.8848 39.0586 76.8164 38.8047C76.6602 38.2383 76.6455 37.8086 76.7725 37.5156C76.8701 37.3008 77.0264 36.9053 77.2412 36.3291C77.3779 35.9678 77.5879 35.4355 77.8711 34.7324C78.1445 34.0293 78.3496 33.4971 78.4863 33.1357C79.0918 31.5732 79.6924 29.9326 80.2881 28.2139C80.874 26.4951 81.5332 24.498 82.2656 22.2227C83.0078 19.9375 83.5547 18.2773 83.9062 17.2422C84.1016 16.6758 84.3848 15.8164 84.7559 14.6641C83.7012 14.7812 82.6416 14.9277 81.5771 15.1035C81.0693 15.1816 80.3174 15.3184 79.3213 15.5137C80.1025 15.6992 80.8789 15.958 81.6504 16.29C81.8457 16.3779 81.9824 16.5049 82.0605 16.6709C82.0703 16.6904 82.0752 16.7148 82.0752 16.7441C82.085 16.7734 82.0898 16.8076 82.0898 16.8467C82.0898 16.876 82.0801 16.9004 82.0605 16.9199C82.041 16.9297 82.0117 16.9297 81.9727 16.9199C80.7129 16.5195 79.4092 16.3096 78.0615 16.29C77.6221 16.29 76.9727 16.3389 76.1133 16.4365C75.4883 16.5244 75.1611 16.5684 75.1318 16.5684C74.8779 16.5879 74.6875 16.5879 74.5605 16.5684C74.4824 16.5488 74.4189 16.5293 74.3701 16.5098C74.3408 16.5391 74.2969 16.5391 74.2383 16.5098C74.082 16.4414 73.9307 16.2607 73.7842 15.9678C73.3057 15.5381 72.998 15.1084 72.8613 14.6787C72.7637 14.376 72.8174 14.2051 73.0225 14.166C73.3838 14.0879 73.7695 14.0244 74.1797 13.9756C74.5898 13.917 75.0537 13.8633 75.5713 13.8145C76.0791 13.7656 76.4697 13.7217 76.7432 13.6826C77.0166 13.6533 78.2324 13.5459 80.3906 13.3604C81.7773 13.2529 83.4082 13.1553 85.2832 13.0674C86.2012 10.2744 86.9873 8.07227 87.6416 6.46094C87.7686 6.14844 88.0957 6.16309 88.623 6.50488C89.1113 6.81738 89.4678 7.18848 89.6924 7.61816C89.8193 7.87207 89.8486 8.07227 89.7803 8.21875C89.5947 8.64844 89.4043 9.11719 89.209 9.625C89.0137 10.123 88.8037 10.6748 88.5791 11.2803C88.3643 11.876 88.1934 12.3447 88.0664 12.6865C88.0566 12.7158 88.042 12.7646 88.0225 12.833C88.0029 12.8916 87.9834 12.9404 87.9639 12.9795C88.4229 12.9697 89.1113 12.9648 90.0293 12.9648C90.752 10.9434 91.4209 9.25391 92.0361 7.89648C92.1826 7.57422 92.5195 7.58887 93.0469 7.94043C93.5254 8.25293 93.8721 8.62402 94.0869 9.05371C94.2236 9.30762 94.2529 9.50781 94.1748 9.6543C94.0088 9.97656 93.8428 10.3232 93.6768 10.6943C93.5205 11.0654 93.3447 11.4854 93.1494 11.9541C92.9541 12.4229 92.8076 12.7744 92.71 13.0088C93.1885 13.0186 93.8818 13.043 94.79 13.082C95.7471 13.1309 96.5137 13.1797 97.0898 13.2285C97.666 13.2773 98.3594 13.3945 99.1699 13.5801C99.9902 13.7559 100.718 13.9951 101.353 14.2979ZM108.223 24.6982C108.271 24.6494 108.34 24.6592 108.428 24.7275C108.525 24.7861 108.604 24.8643 108.662 24.9619C108.721 25.0596 108.735 25.1377 108.706 25.1963C108.433 25.6846 108.125 26.1924 107.783 26.7197C107.441 27.2471 107.051 27.8281 106.611 28.4629C106.182 29.0977 105.854 29.5908 105.63 29.9424C104.927 31.0166 104.302 31.8857 103.755 32.5498C103.247 33.1455 102.803 33.5557 102.422 33.7803C101.797 34.1318 101.035 34.0244 100.137 33.458C100.117 33.4482 100.093 33.4385 100.063 33.4287C100.034 33.4092 100.015 33.3945 100.005 33.3848C99.3408 33.0137 98.7939 32.4912 98.3643 31.8174C97.9346 31.1338 97.7002 30.416 97.6611 29.6641C97.5537 27.7402 98.3984 25.3867 100.195 22.6035C100.908 21.5098 101.577 20.6943 102.202 20.1572C102.554 19.8447 102.866 19.6543 103.14 19.5859C103.921 19.3809 104.731 19.6982 105.571 20.5381C105.767 20.7236 105.913 20.9043 106.011 21.0801C106.274 21.2949 106.479 21.5439 106.626 21.8271C106.802 22.1396 106.87 22.3838 106.831 22.5596C106.812 22.6377 106.748 22.7646 106.641 22.9404C106.631 22.96 106.611 22.9893 106.582 23.0283C106.562 23.0576 106.548 23.082 106.538 23.1016C106.528 23.1309 106.519 23.1504 106.509 23.1602L106.465 23.2188C106.406 23.3359 106.328 23.4678 106.23 23.6143C106.211 23.6436 106.147 23.7754 106.04 24.0098C106.011 24.0684 105.967 24.1465 105.908 24.2441C105.859 24.3418 105.82 24.4199 105.791 24.4785C105.371 25.3281 105.034 25.9092 104.78 26.2217C104.331 26.7686 103.872 27.0469 103.403 27.0566C103.052 27.0664 102.71 26.9736 102.378 26.7783C102.056 26.5732 101.812 26.3096 101.646 25.9873C101.294 26.6416 100.981 27.3447 100.708 28.0967C100.317 29.1611 100.088 30.1426 100.02 31.041C100.01 31.1973 100.01 31.3584 100.02 31.5244C100.02 31.583 100.029 31.6709 100.049 31.7881C100.068 31.8467 100.088 31.8906 100.107 31.9199C100.215 32.0957 100.327 32.2129 100.444 32.2715C100.61 32.3594 100.791 32.3887 100.986 32.3594C101.172 32.3301 101.387 32.2568 101.631 32.1396C101.689 32.1006 101.748 32.0615 101.807 32.0225C101.865 31.9834 101.924 31.9395 101.982 31.8906C102.051 31.832 102.104 31.7881 102.144 31.7588C102.192 31.7197 102.251 31.666 102.319 31.5977C102.388 31.5293 102.437 31.4805 102.466 31.4512C102.505 31.4219 102.559 31.3682 102.627 31.29C102.705 31.2021 102.754 31.1484 102.773 31.1289C102.793 31.1094 102.842 31.0557 102.92 30.9678C103.008 30.8701 103.057 30.8164 103.066 30.8066C103.623 30.2109 104.453 29.2148 105.557 27.8184C106.67 26.4121 107.559 25.3721 108.223 24.6982ZM103.77 22.8086C103.184 23.4922 102.627 24.2832 102.1 25.1816C102.1 25.3281 102.104 25.4355 102.114 25.5039C102.163 25.7969 102.197 25.9727 102.217 26.0312V26.0459L102.231 26.0605H102.246C102.51 26.0898 102.739 26.0605 102.935 25.9727C103.14 25.8652 103.354 25.6748 103.579 25.4014C103.911 24.9912 104.219 24.4102 104.502 23.6582C104.59 23.4238 104.683 23.0625 104.78 22.5742C104.79 22.5156 104.795 22.418 104.795 22.2812C104.805 22.1445 104.81 22.0566 104.81 22.0176C104.81 21.998 104.81 21.9688 104.81 21.9297C104.819 21.8809 104.824 21.8467 104.824 21.8271C104.805 21.8467 104.771 21.8711 104.722 21.9004C104.673 21.9297 104.634 21.9541 104.604 21.9736C104.37 22.1494 104.092 22.4277 103.77 22.8086ZM100.474 32.3887L100.488 32.4033H100.532C100.522 32.3936 100.513 32.3887 100.503 32.3887C100.493 32.3887 100.483 32.3887 100.474 32.3887ZM99.8584 31.8174C99.8389 31.7979 99.7998 31.7686 99.7412 31.7295C99.7607 31.749 99.7998 31.7783 99.8584 31.8174ZM128.145 25.5332C128.35 25.6895 128.457 25.8457 128.467 26.002C128.477 26.0801 128.457 26.1289 128.408 26.1484C128.359 26.1582 128.301 26.1484 128.232 26.1191C127.695 25.9238 127.212 25.5869 126.782 25.1084C126.353 24.6201 126.006 24.0781 125.742 23.4824C125.645 23.2676 125.576 23.1016 125.537 22.9844C124.756 24.9473 124.019 26.6465 123.325 28.082C122.456 29.8789 121.802 31.1387 121.362 31.8613C120.903 32.6133 120.483 33.1797 120.103 33.5605C119.819 33.8438 119.551 33.9951 119.297 34.0146C119.209 34.0244 119.087 34.0098 118.931 33.9707L118.652 33.8828C118.672 33.8926 118.706 33.9023 118.755 33.9121C118.413 33.8242 118.101 33.6045 117.817 33.2529C117.104 32.5693 116.626 31.8711 116.382 31.1582C116.157 30.5039 116.118 29.6494 116.265 28.5947C116.362 27.8623 116.636 26.6904 117.085 25.0791C117.251 24.4932 117.505 23.6191 117.847 22.457C118.198 21.2852 118.457 20.4062 118.623 19.8203C118.711 19.498 119.023 19.5029 119.561 19.835C120.068 20.1475 120.459 20.5381 120.732 21.0068C120.889 21.2803 120.942 21.5098 120.894 21.6953C120.659 22.5059 120.254 23.7998 119.678 25.5771C119.102 27.3545 118.677 28.7217 118.403 29.6787C118.14 30.5771 118.032 31.2656 118.081 31.7441C118.081 31.7539 118.086 31.8125 118.096 31.9199C118.105 32.0273 118.115 32.1055 118.125 32.1543L118.14 32.2129C118.149 32.2422 118.154 32.2617 118.154 32.2715C118.154 32.2812 118.159 32.3008 118.169 32.3301C118.179 32.3496 118.188 32.3691 118.198 32.3887H118.213C118.447 32.3496 118.696 32.2227 118.96 32.0078C119.077 31.9199 119.185 31.8223 119.282 31.7148C119.39 31.6074 119.502 31.4805 119.619 31.334C119.746 31.1777 119.834 31.0654 119.883 30.9971C119.941 30.9287 120.044 30.792 120.19 30.5869C120.337 30.3721 120.42 30.25 120.439 30.2207C121.025 29.4004 121.631 28.4434 122.256 27.3496C122.891 26.2559 123.369 25.3916 123.691 24.7568C124.023 24.1221 124.541 23.1113 125.244 21.7246C125.244 21.7051 125.239 21.6709 125.229 21.6221C125.229 21.5732 125.229 21.5391 125.229 21.5195C125.21 20.6797 125.352 20.0693 125.654 19.6885C125.732 19.5908 125.908 19.5957 126.182 19.7031C126.357 19.7715 126.562 19.9131 126.797 20.1279C127.266 20.5576 127.5 20.9775 127.5 21.3877C127.5 21.583 127.471 21.8613 127.412 22.2227C127.354 22.584 127.319 22.8232 127.31 22.9404C127.3 23.0088 127.285 23.1113 127.266 23.248C127.256 23.375 127.251 23.4434 127.251 23.4531C127.251 23.4629 127.266 23.6826 127.295 24.1123C127.295 24.1416 127.295 24.1709 127.295 24.2002C127.305 24.2197 127.314 24.249 127.324 24.2881C127.334 24.3174 127.339 24.3418 127.339 24.3613C127.378 24.4395 127.397 24.498 127.397 24.5371C127.407 24.5566 127.417 24.5908 127.427 24.6396C127.446 24.6787 127.461 24.708 127.471 24.7275C127.471 24.7373 127.476 24.7568 127.485 24.7861C127.495 24.8057 127.5 24.8203 127.5 24.8301L127.515 24.8447C127.524 24.8545 127.529 24.8643 127.529 24.874C127.539 24.8936 127.549 24.9131 127.559 24.9326C127.578 24.9521 127.593 24.9717 127.603 24.9912L127.617 25.0352C127.637 25.0547 127.651 25.0693 127.661 25.0791C127.71 25.1377 127.739 25.1719 127.749 25.1816C127.817 25.2598 127.949 25.377 128.145 25.5332ZM118.213 32.4033H118.198H118.213ZM136.304 24.6104C136.353 24.5615 136.421 24.5713 136.509 24.6396C136.597 24.6982 136.67 24.7764 136.729 24.874C136.787 24.9717 136.802 25.0498 136.772 25.1084C136.05 26.2607 134.766 28.0479 132.92 30.4697C131.924 31.7881 131.26 32.6279 130.928 32.9893C130.43 33.5654 130.034 33.8926 129.741 33.9707C129.282 34.1074 128.75 33.8584 128.145 33.2236L127.925 33.0039C127.192 32.3008 126.704 31.5439 126.46 30.7334C126.235 29.9717 126.216 29.0684 126.401 28.0234C126.538 27.2617 126.914 26.0703 127.529 24.4492C127.578 24.3223 128.223 22.7646 129.463 19.7764C129.6 19.4443 129.941 19.4541 130.488 19.8057C130.986 20.1279 131.362 20.5137 131.616 20.9629C131.763 21.2461 131.802 21.4707 131.733 21.6367C131.519 22.1348 131.177 22.8965 130.708 23.9219C130.249 24.9473 129.849 25.8652 129.507 26.6758C129.175 27.4863 128.887 28.2676 128.643 29.0195C128.369 29.8789 128.223 30.5479 128.203 31.0264C128.203 31.1143 128.208 31.1777 128.218 31.2168C128.286 31.6465 128.477 32.042 128.789 32.4033C128.799 32.3936 128.813 32.3887 128.833 32.3887C128.862 32.3887 128.882 32.3838 128.892 32.374L128.921 32.3594C128.94 32.3496 128.96 32.3398 128.979 32.3301C128.999 32.3203 129.023 32.3105 129.053 32.3008C129.082 32.2812 129.106 32.2617 129.126 32.2422C129.165 32.2129 129.268 32.1299 129.434 31.9932C129.727 31.7295 129.985 31.4805 130.21 31.2461C130.474 30.9727 130.859 30.5527 131.367 29.9863C131.875 29.4102 132.261 28.9854 132.524 28.7119C132.798 28.4189 133.364 27.7842 134.224 26.8076C135.083 25.8311 135.776 25.0986 136.304 24.6104ZM131.558 19.2344C130.64 18.4141 130.205 17.5791 130.254 16.7295C130.273 16.3779 130.435 15.9189 130.737 15.3525C130.933 14.9717 131.045 14.6982 131.074 14.5322C131.074 14.5029 131.079 14.4688 131.089 14.4297C131.099 14.3809 131.104 14.3467 131.104 14.3271C131.104 14.3174 131.104 14.3027 131.104 14.2832C131.113 14.2539 131.118 14.2344 131.118 14.2246V14.1953C131.118 14.1758 131.113 14.1465 131.104 14.1074V14.0488C131.104 14.0098 131.104 13.9561 131.104 13.8877C131.113 13.8193 131.118 13.7705 131.118 13.7412C131.118 13.6533 131.152 13.5996 131.221 13.5801C131.299 13.5605 131.377 13.5605 131.455 13.5801C131.533 13.5898 131.597 13.6094 131.646 13.6387C131.968 13.7754 132.256 14.0146 132.51 14.3564C133.008 15.0303 133.213 15.6797 133.125 16.3047C133.086 16.5391 132.964 16.9053 132.759 17.4033C132.515 17.999 132.378 18.3652 132.349 18.502C132.339 18.5605 132.314 18.6436 132.275 18.751C132.236 18.8486 132.212 18.9121 132.202 18.9414C132.173 19.0391 132.158 19.0928 132.158 19.1025V19.3516C132.119 19.459 132.026 19.4834 131.88 19.4248C131.733 19.3662 131.626 19.3027 131.558 19.2344ZM143.35 33.6631L143.291 33.6191L143.306 33.6338C143.315 33.6436 143.32 33.6484 143.32 33.6484C143.34 33.6484 143.35 33.6533 143.35 33.6631ZM150.601 24.7129C150.63 24.6738 150.679 24.6787 150.747 24.7275C150.825 24.7764 150.889 24.8447 150.938 24.9326C150.986 25.0107 151.001 25.0693 150.981 25.1084C149.79 27.1201 148.604 28.9365 147.422 30.5576C146.504 31.8174 145.884 32.623 145.562 32.9746C145.151 33.4238 144.824 33.7217 144.58 33.8682C144.316 34.0146 144.033 34.0244 143.73 33.8975C143.623 33.8486 143.496 33.7705 143.35 33.6631L143.496 33.7363C143.525 33.7559 143.574 33.7705 143.643 33.7803C143.525 33.7412 143.418 33.6973 143.32 33.6484H143.335C143.325 33.6484 143.32 33.6484 143.32 33.6484C143.32 33.6387 143.315 33.6338 143.306 33.6338H143.291C143.047 33.4971 142.827 33.292 142.632 33.0186C142.397 32.7646 142.231 32.5693 142.134 32.4326C141.997 32.2373 141.899 32.0859 141.841 31.9785L141.694 31.6562C141.694 31.6758 141.704 31.7002 141.724 31.7295C141.44 31.1436 141.274 30.6113 141.226 30.1328C141.089 28.9121 141.26 27.4717 141.738 25.8115C141.738 25.8018 141.733 25.7822 141.724 25.7529C141.714 25.7236 141.709 25.6992 141.709 25.6797C141.592 25.8945 141.45 26.124 141.284 26.3682C141.128 26.6025 140.952 26.8564 140.757 27.1299C140.562 27.4033 140.415 27.6133 140.317 27.7598C140.112 28.0723 139.814 28.5166 139.424 29.0928C139.043 29.6689 138.809 30.0205 138.721 30.1475C138.604 30.3232 138.408 30.6162 138.135 31.0264C137.871 31.4365 137.637 31.793 137.432 32.0957C137.227 32.3984 137.021 32.6816 136.816 32.9453C136.66 33.1602 136.509 33.3262 136.362 33.4434C136.343 33.4531 136.313 33.4775 136.274 33.5166C136.245 33.5459 136.221 33.5654 136.201 33.5752C136.182 33.585 136.152 33.5996 136.113 33.6191C136.074 33.6289 136.05 33.6387 136.04 33.6484L136.055 33.6631H135.981C135.581 33.6729 135.205 33.4971 134.854 33.1357C134.502 32.7646 134.253 32.3691 134.106 31.9492C133.989 31.6074 133.916 31.2559 133.887 30.8945C133.848 30.5234 133.867 30.1328 133.945 29.7227C134.023 29.3125 134.102 28.9512 134.18 28.6387C134.248 28.3262 134.375 27.9404 134.561 27.4814C134.746 27.0225 134.888 26.6855 134.985 26.4707C135.083 26.2461 135.239 25.9092 135.454 25.46C136.03 24.2295 136.641 23.1064 137.285 22.0908C137.305 22.0615 137.358 21.9785 137.446 21.8418C137.534 21.7051 137.593 21.6172 137.622 21.5781C137.651 21.5293 137.705 21.4463 137.783 21.3291C137.871 21.2021 137.935 21.1143 137.974 21.0654C138.013 21.0068 138.071 20.9238 138.149 20.8164C138.237 20.709 138.311 20.626 138.369 20.5674C138.428 20.499 138.496 20.4258 138.574 20.3477C138.652 20.2598 138.73 20.1865 138.809 20.1279C138.887 20.0596 138.965 19.9961 139.043 19.9375C139.307 19.752 139.58 19.6592 139.863 19.6592C140.146 19.6592 140.415 19.7373 140.669 19.8936C140.923 20.04 141.152 20.2207 141.357 20.4355C141.572 20.6504 141.758 20.8896 141.914 21.1533C142.266 21.7295 142.466 22.5059 142.515 23.4824C142.593 23.2676 142.71 22.9551 142.866 22.5449C143.599 20.6016 144.712 17.7793 146.206 14.0781C147.71 10.377 148.55 8.31152 148.726 7.88184C148.853 7.55957 149.18 7.57422 149.707 7.92578C150.195 8.24805 150.552 8.62891 150.776 9.06836C150.903 9.32227 150.942 9.52734 150.894 9.68359C150.376 11.0605 149.204 14.0781 147.378 18.7363C147.153 19.3027 146.738 20.3135 146.133 21.7686C145.527 23.2236 145.024 24.4785 144.624 25.5332C144.233 26.5879 143.892 27.623 143.599 28.6387C143.442 29.166 143.315 29.6689 143.218 30.1475C143.188 30.3037 143.154 30.5381 143.115 30.8506C143.096 30.9678 143.086 31.0557 143.086 31.1143C143.086 31.1631 143.086 31.2021 143.086 31.2314C143.086 31.251 143.086 31.2705 143.086 31.29C143.086 31.2998 143.086 31.3096 143.086 31.3193C143.086 31.6221 143.125 31.9297 143.203 32.2422C143.223 32.2812 143.242 32.3301 143.262 32.3887L143.35 32.374C143.398 32.3643 143.433 32.3545 143.452 32.3447L143.511 32.3301H143.496C143.506 32.3203 143.525 32.3105 143.555 32.3008C143.584 32.2812 143.604 32.2666 143.613 32.2568L143.877 32.0811C144.053 31.9541 144.302 31.7393 144.624 31.4365C145.278 30.8213 145.928 30.1572 146.572 29.4443C147.217 28.7217 147.959 27.8574 148.799 26.8516C149.639 25.8359 150.239 25.123 150.601 24.7129ZM141.475 21.7539C141.455 21.7637 141.44 21.7686 141.431 21.7686C141.46 21.7686 141.475 21.7637 141.475 21.7539ZM140.654 21.2559H140.64C140.64 21.2461 140.645 21.2461 140.654 21.2559ZM140.625 21.2412C140.605 21.2412 140.605 21.2412 140.625 21.2412V21.2412ZM135.073 32.1982C134.966 32.1592 134.912 32.1494 134.912 32.1689C134.912 32.1689 134.927 32.1787 134.956 32.1982C134.956 32.1885 134.976 32.1885 135.015 32.1982H135.044L135.029 32.2129H135.044C135.054 32.2129 135.059 32.2129 135.059 32.2129C135.059 32.2031 135.063 32.1982 135.073 32.1982ZM135.864 33.1357C135.884 33.1162 135.889 33.0918 135.879 33.0625L135.864 33.1357ZM139.893 26.3828C139.971 26.2852 140.088 26.124 140.244 25.8994C140.41 25.665 140.542 25.4795 140.64 25.3428C140.737 25.1963 140.864 25.0352 141.021 24.8594C141.177 24.6738 141.328 24.5176 141.475 24.3906C141.396 23.9805 141.26 23.3652 141.064 22.5449C141.035 22.418 140.991 22.2764 140.933 22.1201L140.918 22.1348C140.645 22.418 140.386 22.7305 140.142 23.0723C139.067 24.5664 138.081 26.4512 137.183 28.7266C137.007 29.1855 136.724 29.9766 136.333 31.0996C136.392 31.041 136.431 30.9971 136.45 30.9678C136.899 30.4307 137.568 29.5566 138.457 28.3457C138.623 28.1211 138.862 27.7939 139.175 27.3643C139.497 26.9248 139.736 26.5977 139.893 26.3828ZM159.053 24.6982C159.102 24.6494 159.17 24.6592 159.258 24.7275C159.355 24.7861 159.434 24.8643 159.492 24.9619C159.551 25.0596 159.565 25.1377 159.536 25.1963C159.263 25.6846 158.955 26.1924 158.613 26.7197C158.271 27.2471 157.881 27.8281 157.441 28.4629C157.012 29.0977 156.685 29.5908 156.46 29.9424C155.757 31.0166 155.132 31.8857 154.585 32.5498C154.077 33.1455 153.633 33.5557 153.252 33.7803C152.627 34.1318 151.865 34.0244 150.967 33.458C150.947 33.4482 150.923 33.4385 150.894 33.4287C150.864 33.4092 150.845 33.3945 150.835 33.3848C150.171 33.0137 149.624 32.4912 149.194 31.8174C148.765 31.1338 148.53 30.416 148.491 29.6641C148.384 27.7402 149.229 25.3867 151.025 22.6035C151.738 21.5098 152.407 20.6943 153.032 20.1572C153.384 19.8447 153.696 19.6543 153.97 19.5859C154.751 19.3809 155.562 19.6982 156.401 20.5381C156.597 20.7236 156.743 20.9043 156.841 21.0801C157.104 21.2949 157.31 21.5439 157.456 21.8271C157.632 22.1396 157.7 22.3838 157.661 22.5596C157.642 22.6377 157.578 22.7646 157.471 22.9404C157.461 22.96 157.441 22.9893 157.412 23.0283C157.393 23.0576 157.378 23.082 157.368 23.1016C157.358 23.1309 157.349 23.1504 157.339 23.1602L157.295 23.2188C157.236 23.3359 157.158 23.4678 157.061 23.6143C157.041 23.6436 156.978 23.7754 156.87 24.0098C156.841 24.0684 156.797 24.1465 156.738 24.2441C156.689 24.3418 156.65 24.4199 156.621 24.4785C156.201 25.3281 155.864 25.9092 155.61 26.2217C155.161 26.7686 154.702 27.0469 154.233 27.0566C153.882 27.0664 153.54 26.9736 153.208 26.7783C152.886 26.5732 152.642 26.3096 152.476 25.9873C152.124 26.6416 151.812 27.3447 151.538 28.0967C151.147 29.1611 150.918 30.1426 150.85 31.041C150.84 31.1973 150.84 31.3584 150.85 31.5244C150.85 31.583 150.859 31.6709 150.879 31.7881C150.898 31.8467 150.918 31.8906 150.938 31.9199C151.045 32.0957 151.157 32.2129 151.274 32.2715C151.44 32.3594 151.621 32.3887 151.816 32.3594C152.002 32.3301 152.217 32.2568 152.461 32.1396C152.52 32.1006 152.578 32.0615 152.637 32.0225C152.695 31.9834 152.754 31.9395 152.812 31.8906C152.881 31.832 152.935 31.7881 152.974 31.7588C153.022 31.7197 153.081 31.666 153.149 31.5977C153.218 31.5293 153.267 31.4805 153.296 31.4512C153.335 31.4219 153.389 31.3682 153.457 31.29C153.535 31.2021 153.584 31.1484 153.604 31.1289C153.623 31.1094 153.672 31.0557 153.75 30.9678C153.838 30.8701 153.887 30.8164 153.896 30.8066C154.453 30.2109 155.283 29.2148 156.387 27.8184C157.5 26.4121 158.389 25.3721 159.053 24.6982ZM154.6 22.8086C154.014 23.4922 153.457 24.2832 152.93 25.1816C152.93 25.3281 152.935 25.4355 152.944 25.5039C152.993 25.7969 153.027 25.9727 153.047 26.0312V26.0459L153.062 26.0605H153.076C153.34 26.0898 153.569 26.0605 153.765 25.9727C153.97 25.8652 154.185 25.6748 154.409 25.4014C154.741 24.9912 155.049 24.4102 155.332 23.6582C155.42 23.4238 155.513 23.0625 155.61 22.5742C155.62 22.5156 155.625 22.418 155.625 22.2812C155.635 22.1445 155.64 22.0566 155.64 22.0176C155.64 21.998 155.64 21.9688 155.64 21.9297C155.649 21.8809 155.654 21.8467 155.654 21.8271C155.635 21.8467 155.601 21.8711 155.552 21.9004C155.503 21.9297 155.464 21.9541 155.435 21.9736C155.2 22.1494 154.922 22.4277 154.6 22.8086ZM151.304 32.3887L151.318 32.4033H151.362C151.353 32.3936 151.343 32.3887 151.333 32.3887C151.323 32.3887 151.313 32.3887 151.304 32.3887ZM150.688 31.8174C150.669 31.7979 150.63 31.7686 150.571 31.7295C150.591 31.749 150.63 31.7783 150.688 31.8174ZM166.582 21.2266C166.748 21.6562 166.724 22.1885 166.509 22.8232C166.333 23.3408 166.006 24.1514 165.527 25.2549C166.035 25.9092 166.221 26.8516 166.084 28.082C165.918 29.6055 165.391 31.0117 164.502 32.3008C164.033 32.9746 163.472 33.4727 162.817 33.7949C162.173 34.1172 161.504 34.127 160.811 33.8242L160.723 33.7803C160.605 33.7412 160.469 33.6631 160.312 33.5459H160.298C160.278 33.5264 160.249 33.5068 160.21 33.4873C160.181 33.458 160.156 33.4385 160.137 33.4287C159.707 33.1162 159.297 32.6768 158.906 32.1104C158.477 31.5146 158.159 30.9287 157.954 30.3525C157.954 30.3428 157.949 30.3281 157.939 30.3086C157.93 30.2891 157.925 30.2646 157.925 30.2354C157.603 29.2783 157.485 28.3164 157.573 27.3496C157.671 26.3242 157.949 25.2939 158.408 24.2588C158.867 23.2236 159.497 22.2861 160.298 21.4463C161.108 20.5967 161.992 20.0156 162.949 19.7031C163.672 19.4688 164.39 19.4883 165.103 19.7617C165.815 20.0352 166.309 20.5234 166.582 21.2266ZM164.604 27.6426C164.731 27.0664 164.795 26.5293 164.795 26.0312C164.795 25.8652 164.79 25.7383 164.78 25.6504L164.707 25.5771C164.697 25.5869 164.683 25.5918 164.663 25.5918C164.644 25.5918 164.629 25.5967 164.619 25.6064L164.355 25.7383C164.375 25.7383 164.399 25.7285 164.429 25.709C164.458 25.6895 164.478 25.6797 164.487 25.6797C164.185 25.8457 163.926 26.0996 163.711 26.4414C163.691 26.4805 163.643 26.5439 163.564 26.6318C163.496 26.7197 163.452 26.7832 163.433 26.8223C163.374 26.9102 163.325 27.0615 163.286 27.2764C163.208 27.5693 163.184 27.877 163.213 28.1992C163.223 28.2578 163.237 28.3359 163.257 28.4336C163.267 28.4629 163.271 28.4824 163.271 28.4922C163.291 28.5312 163.301 28.5654 163.301 28.5947L163.389 28.8584C163.389 28.8682 163.389 28.8779 163.389 28.8877L163.403 28.9023C163.413 28.9121 163.423 28.9316 163.433 28.9609C163.442 28.9902 163.447 29.0098 163.447 29.0195C163.525 29.2051 163.486 29.3027 163.33 29.3125C163.174 29.3223 162.998 29.2197 162.803 29.0049C162.402 28.5654 162.114 28.0527 161.938 27.4668C161.763 26.8809 161.733 26.2998 161.851 25.7236C161.919 25.3428 161.978 25.1035 162.026 25.0059C162.153 24.752 162.3 24.5273 162.466 24.332C162.7 24.0586 162.881 23.8828 163.008 23.8047C163.35 23.6191 163.677 23.5557 163.989 23.6143C164.292 23.6826 164.604 23.8828 164.927 24.2148C165.19 23.375 165.322 22.623 165.322 21.959V21.5488C165.283 21.5586 165.229 21.5732 165.161 21.5928C165.093 21.6025 165.044 21.6123 165.015 21.6221C164.556 21.749 164.072 21.998 163.564 22.3691C162.549 23.1016 161.694 24.1172 161.001 25.416C160.288 26.7246 159.897 28.0527 159.829 29.4004C159.8 30.0156 159.858 30.582 160.005 31.0996C160.054 31.2559 160.122 31.4268 160.21 31.6123V31.627L160.225 31.6416V31.6562C160.234 31.6758 160.249 31.7051 160.269 31.7441C160.288 31.7734 160.303 31.7979 160.312 31.8174C160.312 31.8271 160.312 31.832 160.312 31.832H160.327L160.459 32.0078C160.352 31.8711 160.361 31.8711 160.488 32.0078C160.498 32.0176 160.518 32.0371 160.547 32.0664L160.635 32.1689C160.732 32.2666 160.835 32.3887 160.942 32.5352C161.733 32.418 162.495 31.832 163.228 30.7773C163.901 29.8105 164.36 28.7656 164.604 27.6426Z" fill="#F7C35F"/>
</svg>
