<svg width="215" height="11" viewBox="0 0 215 11" fill="none" xmlns="http://www.w3.org/2000/svg">
<path fill-rule="evenodd" clip-rule="evenodd" d="M38.2232 4.04469C35.876 4.48398 33.673 5.11996 31.6864 6.01165C31.47 6.10999 31.4044 6.24765 31.3847 6.30666C31.3519 6.41156 31.3651 6.50996 31.4175 6.60175C31.4503 6.66076 31.5028 6.73289 31.6142 6.77879C31.6929 6.81157 31.8962 6.83777 32.165 6.83121C32.6239 6.82466 33.3321 6.77223 33.673 6.77223C34.8401 6.78534 36.0071 6.77873 37.1742 6.7984C40.8917 6.86396 41.5408 6.91641 46.3205 6.87707C51.9001 6.83118 57.4928 6.7525 63.079 6.63448C45.3239 7.61796 27.5951 8.76536 9.95805 9.83407C9.76135 9.84719 9.61055 10.0177 9.62366 10.2144C9.63022 10.4177 9.80722 10.5685 10.0039 10.5554C51.1592 8.06387 92.7669 5.12651 134.237 4.93637C136.283 4.98226 138.322 5.02813 140.354 5.07403C152.634 5.36251 164.921 5.71004 177.189 6.24767C181.181 6.4247 185.174 6.62138 189.174 6.80496C190.354 6.85741 191.541 6.90986 192.728 6.96231C193.685 7.00165 196.15 7.14592 196.498 7.15248C196.812 7.15903 196.891 6.87714 196.897 6.86403C196.917 6.77224 196.904 6.66728 196.825 6.56893C196.806 6.54271 196.753 6.47062 196.635 6.43784C196.616 6.43784 196.524 6.42469 196.334 6.40502C186.473 5.59857 176.585 5.04127 166.679 4.68721C168.009 4.70033 169.34 4.70692 170.671 4.72003C180.932 4.79871 191.22 5.08064 201.474 4.72003C203.808 4.64135 206.149 4.54952 208.476 4.43806C210.043 4.36594 214.076 4.45775 214.646 4.28728C214.908 4.21515 214.967 4.03155 214.974 3.93976C214.98 3.83486 214.961 3.71684 214.843 3.61193C214.79 3.55948 214.626 3.47429 214.318 3.40872C204.254 1.2254 192.478 1.84167 182.231 1.23191C154.398 -0.440003 126.664 0.674655 98.8382 1.69092C74.8216 2.56949 50.8051 2.61537 26.8017 3.80866C18.016 4.24139 8.95491 3.74313 0.29375 5.39537C0.0970545 5.43471 -0.027561 5.61822 0.00522161 5.81492C0.0445607 6.01161 0.234716 6.14279 0.431411 6.10345C9.05323 4.45776 18.0816 4.9626 26.8345 4.52986C30.6307 4.33973 34.427 4.18237 38.2232 4.04469ZM112.476 4.52986C97.7695 4.30039 83.0633 4.18234 68.3439 4.25446C58.2468 4.30036 43.534 2.37937 33.5025 6.05102C33.5746 6.05102 33.6336 6.05102 33.6861 6.05102C34.8531 6.06414 36.0202 6.05097 37.1873 6.0772C40.8983 6.14276 41.5473 6.19521 46.3139 6.15587C58.5025 6.05097 70.7239 5.78875 82.9059 5.38225C92.7734 5.05442 102.628 4.75934 112.476 4.52986ZM211.958 3.68405C202.444 2.01869 191.659 2.51706 182.185 1.95319C154.378 0.281279 126.664 1.39586 98.8644 2.41212C86.4398 2.87108 74.0218 3.10054 61.6103 3.38247C63.9903 3.47426 66.2655 3.53982 68.3439 3.53326C89.3837 3.42835 110.417 3.71033 131.457 4.15618C144.524 3.95948 157.591 3.88736 170.678 3.99226C180.932 4.0775 191.2 4.35288 201.454 3.99883C203.782 3.92015 206.116 3.82832 208.443 3.71686C209.237 3.68408 210.673 3.6906 211.958 3.68405Z" fill="#F7C35F"/>
</svg>
