<svg width="55" height="60" viewBox="0 0 55 60" fill="none" xmlns="http://www.w3.org/2000/svg">
<path d="M53.5 34C53.5 52 42.5 59 35.5 59C30.5 59 28.5 57 27.5 57C26.5 57 24.5 59 19.5 59C12.5 59 1.5 52 1.5 34C1.5 18 10.5 14 19.5 14H19.51C22.2311 13.9438 24.9393 14.3879 27.5 15.31H27.51C30.0707 14.3879 32.7789 13.9438 35.5 14C44.5 14 53.5 18 53.5 34Z" fill="#F44335"/>
<path d="M35.5 14C34.983 14 34.49 14.017 34.008 14.041C42.478 14.487 50.5 18.9 50.5 34C50.5 50.9 40.809 58.1 33.83 58.919C34.347 58.97 34.9 59 35.5 59C42.5 59 53.5 52 53.5 34C53.5 18 44.5 14 35.5 14Z" fill="#C81E1E"/>
<path d="M30.55 16.9199C29.6048 16.2635 28.5841 15.723 27.51 15.3099L30.55 16.9199Z" fill="#F44335"/>
<path d="M27.5 10.38V15.31C24.9393 14.3878 22.2311 13.9438 19.51 14H19.5C18.2758 13.5538 17.161 12.8515 16.23 11.94C12.49 8.11996 13.74 1.07996 13.74 1.07996C13.74 1.07996 21.06 0.239961 24.81 4.05996C26.3618 5.82325 27.305 8.03916 27.5 10.38Z" fill="#60A917"/>
<path d="M24.81 4.0599C21.468 0.659901 15.31 0.951901 14 1.0599C16.434 1.2349 19.691 1.9049 21.81 4.0599C23.3618 5.82319 24.305 8.0391 24.5 10.3799V14.4629C25.5221 14.6601 26.5257 14.9434 27.5 15.3099V10.3799C27.305 8.0391 26.3618 5.82319 24.81 4.0599Z" fill="#549414"/>
<path d="M5.733 31C5.69086 31.0003 5.64876 30.9977 5.607 30.992C5.34374 30.9591 5.10437 30.8228 4.94157 30.6133C4.77878 30.4038 4.7059 30.1382 4.739 29.875C5.827 21.211 10.655 17 19.5 17C20.0523 17 20.5 17.4477 20.5 18C20.5 18.5523 20.0523 19 19.5 19C11.736 19 7.676 22.535 6.724 30.125C6.66106 30.6246 6.23651 30.9994 5.733 31Z" fill="#F5F5F5"/>
<path d="M5.5 35C6.05228 35 6.5 34.5523 6.5 34C6.5 33.4477 6.05228 33 5.5 33C4.94772 33 4.5 33.4477 4.5 34C4.5 34.5523 4.94772 35 5.5 35Z" fill="#F5F5F5"/>
<path d="M0.5 34C0.5 52.941 12.154 60 19.5 60C21.9824 60.0403 24.4374 59.4771 26.654 58.359C26.9225 58.2213 27.1998 58.1013 27.484 58C27.7814 58.0938 28.0699 58.2139 28.346 58.359C30.5626 59.4771 33.0176 60.0403 35.5 60C42.846 60 54.5 52.941 54.5 34C54.5 16.643 44.167 13 35.5 13C33.1334 12.9773 30.7759 13.2955 28.5 13.945V8.99996C28.5 7.11896 28.5 3.61795 31.947 1.89995C32.2668 1.74026 32.477 1.4221 32.4986 1.06534C32.5202 0.708578 32.3498 0.367406 32.0516 0.170341C31.7534 -0.0267244 31.3728 -0.0497437 31.053 0.109954C28.9782 1.10908 27.4575 2.9821 26.906 5.21795C26.5245 4.54448 26.0598 3.9216 25.523 3.36395C21.478 -0.761046 13.944 0.048954 13.626 0.085954C13.1869 0.136647 12.8331 0.469666 12.756 0.904954C12.701 1.21295 11.462 8.50496 15.519 12.644C15.712 12.838 15.919 13.02 16.137 13.198C8.372 14.149 0.5 18.85 0.5 34ZM14.629 2.02095C16.518 1.93995 21.413 2.02695 24.095 4.75895C25.4945 6.34614 26.3387 8.34606 26.5 10.456V13.94C24.2951 13.3151 22.0137 13.0014 19.722 13.008C18.6847 12.615 17.7392 12.0133 16.944 11.24C14.3 8.53596 14.45 3.85495 14.629 2.02095ZM19.5 15C22.0894 14.9486 24.6667 15.3652 27.108 16.23H27.118L27.148 16.24C28.1468 16.6254 29.0959 17.129 29.975 17.74C30.267 17.9522 30.6508 17.9906 30.9791 17.8404C31.3074 17.6901 31.5292 17.3746 31.5595 17.0148C31.5897 16.655 31.4236 16.3069 31.125 16.104C30.844 15.904 30.551 15.717 30.249 15.537C31.9744 15.1664 33.7353 14.9863 35.5 15C46.78 15 52.5 21.393 52.5 34C52.5 51.484 42.073 58 35.5 58C33.313 58.0405 31.1496 57.5429 29.2 56.551C28.6798 56.2466 28.0998 56.0586 27.5 56C26.9002 56.0586 26.3202 56.2466 25.8 56.551C23.8504 57.5429 21.687 58.0405 19.5 58C12.927 58 2.5 51.484 2.5 34C2.5 21.393 8.22 15 19.5 15Z" fill="black"/>
</svg>
