<svg width="55" height="60" viewBox="0 0 55 60" fill="none" xmlns="http://www.w3.org/2000/svg">
<path d="M51.2 27.9201L51.19 27.9501C48.66 43.6601 31.03 59.0001 20.13 59.0001C9.34 59.0001 1.5 52.4201 1.5 42.0801C1.5 31.7401 9.4 26.4001 15.23 25.1601C24.05 23.2801 27.43 21.7101 30.91 16.7001C31.4505 15.9323 32.1047 15.2511 32.85 14.6801C33.38 16.5401 40.99 14.3601 43.55 15.0001C51.21 16.9001 48.85 26.9501 51.2 27.9201Z" fill="#9D27B0"/>
<path d="M33.859 15.3511C33.319 15.2441 32.952 15.0381 32.85 14.6801C32.55 14.9188 32.2641 15.1749 31.994 15.4471C32.553 15.4511 33.189 15.4111 33.859 15.3511Z" fill="#6A1B9A"/>
<path d="M43.55 15C42.5181 14.8416 41.4687 14.8352 40.435 14.981C40.471 14.989 40.516 14.991 40.55 15C48.21 16.9 45.85 26.95 48.2 27.92L48.19 27.95C45.753 43.082 29.31 57.864 18.363 58.932C18.943 58.972 19.53 59 20.13 59C31.03 59 48.66 43.66 51.19 27.95L51.2 27.92C48.85 26.95 51.21 16.9 43.55 15Z" fill="#6A1B9A"/>
<path d="M51.6 28C51.4626 28.0006 51.3266 27.9734 51.2 27.92C48.85 26.95 51.21 16.9 43.55 15C40.99 14.36 33.38 16.54 32.85 14.68C32.75 14.31 32.93 13.76 33.5 13C36.49 9 42.55 10 45.56 10C48.57 10 45.56 3 45.56 3C46.57 1 49.59 1 49.59 1C53.61 7 49.59 10 51.6 13C53.61 16 54.61 28 51.6 28Z" fill="#60A917"/>
<path d="M51.6 13C49.59 10 53.61 7 49.59 1C48.6832 1.02364 47.7919 1.23975 46.975 1.634C50.3 7.21 46.663 10.109 48.6 13C50.1 15.246 51.043 22.535 50.157 26.058C50.377 27.011 50.667 27.7 51.2 27.92C51.3266 27.9734 51.4626 28.0006 51.6 28C54.61 28 53.61 16 51.6 13Z" fill="#549414"/>
<path d="M5.5 41C4.94772 41 4.5 40.5523 4.5 40C4.5 37.437 6.949 31.118 14.225 29.039C14.5721 28.9286 14.9518 29.0157 15.2161 29.2663C15.4804 29.5169 15.5876 29.8914 15.4959 30.2439C15.4041 30.5963 15.128 30.8711 14.775 30.961C7.973 32.905 6.5 38.676 6.5 40C6.5 40.5523 6.05228 41 5.5 41Z" fill="#F5F5F5"/>
<path d="M5.5 45C6.05228 45 6.5 44.5523 6.5 44C6.5 43.4477 6.05228 43 5.5 43C4.94772 43 4.5 43.4477 4.5 44C4.5 44.5523 4.94772 45 5.5 45Z" fill="#F5F5F5"/>
<path d="M20.1301 60C31.4301 60 48.9441 44.78 52.0171 28.955C52.7383 28.7808 53.339 28.2838 53.6451 27.608C55.3171 24.473 54.3041 15.243 52.4281 12.443C51.8431 11.571 51.9501 10.694 52.1891 9.219C52.9009 6.17514 52.2542 2.9722 50.4171 0.443C50.2313 0.165986 49.9197 -0.000162461 49.5861 1.19206e-07C49.4381 1.19206e-07 45.9381 0.029 44.6711 2.551C44.5383 2.81512 44.5291 3.12449 44.6461 3.396C45.5381 5.471 46.2201 8.259 45.7711 8.94C45.7551 8.964 45.7311 9 45.5641 9C45.1211 9 44.6091 8.978 44.0511 8.953C40.6681 8.8 35.5581 8.583 32.7001 12.4C32.2715 12.9245 31.9794 13.5471 31.8501 14.212C31.1824 14.7718 30.5904 15.4162 30.0891 16.129C26.9171 20.695 23.9591 22.275 15.0221 24.181C6.54101 25.9349 0.46857 33.4195 0.500122 42.08C0.500122 52.631 8.57212 60 20.1301 60ZM34.3001 13.6C36.5261 10.627 40.8251 10.815 43.9641 10.951C44.5551 10.977 45.0951 11 45.5641 11C46.314 11.0274 47.0245 10.664 47.4411 10.04C48.5661 8.33 47.3481 4.74 46.6881 3.1C47.336 2.48425 48.1768 2.11151 49.0681 2.045C50.3824 4.07287 50.798 6.55457 50.2161 8.9C49.9691 10.419 49.7161 11.988 50.7661 13.559C52.2421 15.759 53.1811 24.232 51.8801 26.669C51.7641 26.887 51.6491 27.002 51.5801 27.004C51.2461 26.796 50.9801 25.17 50.8031 24.094C50.2351 20.64 49.3771 15.421 43.7891 14.032C43.284 13.9207 42.7673 13.87 42.2501 13.881C41.0229 13.9144 39.7983 14.0112 38.5811 14.171C37.0651 14.341 34.5951 14.617 33.8541 14.338C33.9684 14.0728 34.1184 13.8245 34.3001 13.6ZM15.4381 26.138C24.2171 24.267 27.9981 22.646 31.7321 17.27C32.0549 16.8219 32.4236 16.4086 32.8321 16.037C34.0511 16.675 36.2061 16.447 38.8101 16.157C40.2963 15.906 41.8082 15.8431 43.3101 15.97C47.6201 17.042 48.2921 21.131 48.8321 24.417C49.0911 25.998 49.3541 27.503 50.0971 28.334C47.3661 43.143 30.5441 58 20.1301 58C9.58512 58 2.50012 51.6 2.50012 42.08C2.50012 31.646 10.9631 27.09 15.4381 26.138Z" fill="black"/>
</svg>
