<svg width="220" height="95" viewBox="0 0 220 95" fill="none" xmlns="http://www.w3.org/2000/svg">
<path d="M95.3128 35.7349V56.5104L98.1257 56.5308V46.6328H104.911V44.0206H98.1257V38.3471H106.951V35.7349H95.3128ZM112.018 39.9594C113.028 39.9594 113.865 39.1838 113.865 38.2043C113.865 37.2247 113.049 36.4491 112.018 36.4491C111.009 36.4491 110.172 37.2247 110.172 38.2043C110.172 39.1838 110.988 39.9594 112.018 39.9594ZM110.58 42.5716V56.5308H113.393V42.5716H110.58ZM123.828 42.1634C120.092 42.1634 117.494 45.1634 117.494 48.7349C117.494 52.3063 120.092 55.3063 123.828 55.3063C125.546 55.3063 126.942 54.694 127.972 53.6532V55.5104C127.994 57.8165 126.061 59.7349 123.613 59.7553C123.592 59.7553 123.592 59.7553 123.57 59.7553C122.669 59.7553 121.788 59.4287 121.08 58.9594L119.662 61.2859C123.012 63.3471 127.478 62.4287 129.626 59.2451C130.377 58.1226 130.785 56.8369 130.785 55.5104V42.592H127.972V43.8369C126.942 42.7961 125.546 42.1634 123.828 42.1634ZM120.307 48.7349C120.307 46.5104 122.089 44.7757 124.15 44.7757C126.212 44.7757 127.972 46.5308 127.972 48.7349C127.972 50.9594 126.19 52.6736 124.15 52.6736C122.089 52.6736 120.307 50.9389 120.307 48.7349ZM140.92 44.7757C139.245 44.7961 137.893 46.1022 137.914 47.694V56.5104H135.101V42.5512H137.914V43.8369C138.773 42.7553 140.104 42.143 141.543 42.1634C143.518 42.1634 145.043 43.0818 145.902 44.5104C146.889 43.0614 148.564 42.1838 150.368 42.1634C153.567 42.1634 155.564 44.6124 155.564 47.6532V56.5104H152.773V47.694C152.773 46.1022 151.442 44.7961 149.767 44.7757C148.092 44.7961 146.739 46.1022 146.761 47.694V56.5104H143.926V47.694C143.926 46.1022 142.595 44.7961 140.92 44.7757ZM170.552 44.143C169.264 42.8573 167.46 42.143 165.592 42.1634C161.405 42.1634 158.442 45.5308 158.442 49.5308C158.442 53.5512 161.405 56.8981 165.592 56.8981C167.46 56.8981 169.242 56.1838 170.552 54.9185V56.5104H173.365V42.5512H170.552V44.143ZM161.255 49.5308C161.255 46.8777 163.402 44.7553 165.914 44.7553C168.405 44.7757 170.552 46.8777 170.552 49.5308C170.552 52.1838 168.405 54.2859 165.893 54.2859C163.423 54.3063 161.255 52.2043 161.255 49.5308Z" fill="white" fill-opacity="0.4"/>
<path d="M58.9817 48.6124C58.9817 44.8165 62.224 41.7349 66.2179 41.7349C70.2117 41.7349 73.4541 44.8165 73.4541 48.6124C73.4541 52.4083 70.2117 55.49 66.2179 55.49C62.224 55.49 58.9817 52.4083 58.9817 48.6124Z" fill="white" fill-opacity="0.4"/>
<path d="M44.5306 62.3468C44.5306 58.5509 47.7729 55.4692 51.7668 55.4692H59.003V62.3468C59.003 66.1427 55.7607 69.2243 51.7668 69.2243C47.7729 69.2243 44.5306 66.1427 44.5306 62.3468Z" fill="white" fill-opacity="0.4"/>
<path d="M58.9817 27.9999V41.7346H66.2179C70.2117 41.7346 73.4541 38.653 73.4541 34.857C73.4541 31.0611 70.2117 27.9795 66.2179 27.9795H58.9817V27.9999Z" fill="white" fill-opacity="0.4"/>
<path d="M44.5306 34.8777C44.5306 38.6737 47.7729 41.7553 51.7668 41.7553H59.003V28.0206H51.7668C47.7729 28.0002 44.5306 31.0818 44.5306 34.8777Z" fill="white" fill-opacity="0.4"/>
<path d="M44.5306 48.6121C44.5306 52.408 47.7729 55.4897 51.7668 55.4897H59.003V41.755H51.7668C47.7729 41.7346 44.5306 44.8162 44.5306 48.6121Z" fill="white" fill-opacity="0.4"/>
</svg>
