<svg width="21" height="20" viewBox="0 0 21 20" fill="none" xmlns="http://www.w3.org/2000/svg">
<path d="M17.9399 9.58336C17.9428 10.6832 17.6858 11.7683 17.1899 12.75C16.602 13.9265 15.6981 14.916 14.5795 15.6078C13.4609 16.2995 12.1718 16.6662 10.8566 16.6667C9.75672 16.6696 8.6717 16.4126 7.68994 15.9167L2.93994 17.5L4.52327 12.75C4.02738 11.7683 3.77041 10.6832 3.77327 9.58336C3.77378 8.26815 4.14045 6.97907 4.83221 5.86048C5.52396 4.7419 6.51349 3.838 7.68994 3.25002C8.6717 2.75413 9.75672 2.49716 10.8566 2.50002H11.2733C13.0102 2.59585 14.6508 3.32899 15.8809 4.55907C17.111 5.78915 17.8441 7.42973 17.9399 9.16669V9.58336Z" stroke="#F7C35F" stroke-linecap="round" stroke-linejoin="round"/>
</svg>
