<svg width="24" height="25" viewBox="0 0 24 25" fill="none" xmlns="http://www.w3.org/2000/svg">
<path d="M12 9.70215C11.138 9.70215 10.3114 10.0446 9.7019 10.6541C9.09241 11.2635 8.75 12.0902 8.75 12.9521C8.75 13.8141 9.09241 14.6408 9.7019 15.2502C10.3114 15.8597 11.138 16.2021 12 16.2021C12.862 16.2021 13.6886 15.8597 14.2981 15.2502C14.9076 14.6408 15.25 13.8141 15.25 12.9521C15.25 12.0902 14.9076 11.2635 14.2981 10.6541C13.6886 10.0446 12.862 9.70215 12 9.70215Z" fill="#F7C35F"/>
<path fill-rule="evenodd" clip-rule="evenodd" d="M6.77 4.03409C10.246 3.64879 13.754 3.64879 17.23 4.03409C19.129 4.24609 20.66 5.74109 20.883 7.64709C21.2952 11.1717 21.2952 14.7324 20.883 18.2571C20.66 20.1631 19.129 21.6581 17.231 21.8711C13.7547 22.2565 10.2464 22.2565 6.77 21.8711C4.871 21.6581 3.34 20.1631 3.117 18.2581C2.70473 14.7331 2.70473 11.1721 3.117 7.64709C3.34 5.74109 4.871 4.24609 6.77 4.03409ZM17 6.95209C16.7348 6.95209 16.4804 7.05745 16.2929 7.24499C16.1054 7.43252 16 7.68688 16 7.95209C16 8.21731 16.1054 8.47166 16.2929 8.6592C16.4804 8.84673 16.7348 8.95209 17 8.95209C17.2652 8.95209 17.5196 8.84673 17.7071 8.6592C17.8946 8.47166 18 8.21731 18 7.95209C18 7.68688 17.8946 7.43252 17.7071 7.24499C17.5196 7.05745 17.2652 6.95209 17 6.95209ZM7.25 12.9521C7.25 11.6923 7.75045 10.4841 8.64125 9.59333C9.53204 8.70254 10.7402 8.20209 12 8.20209C13.2598 8.20209 14.468 8.70254 15.3588 9.59333C16.2496 10.4841 16.75 11.6923 16.75 12.9521C16.75 14.2119 16.2496 15.4201 15.3588 16.3108C14.468 17.2016 13.2598 17.7021 12 17.7021C10.7402 17.7021 9.53204 17.2016 8.64125 16.3108C7.75045 15.4201 7.25 14.2119 7.25 12.9521Z" fill="#F7C35F"/>
</svg>
