<svg width="24" height="25" viewBox="0 0 24 25" fill="none" xmlns="http://www.w3.org/2000/svg">
<path d="M22.46 6.95215C21.69 7.30215 20.86 7.53215 20 7.64215C20.88 7.11215 21.56 6.27215 21.88 5.26215C21.05 5.76215 20.13 6.11215 19.16 6.31215C18.37 5.45215 17.26 4.95215 16 4.95215C13.65 4.95215 11.73 6.87215 11.73 9.24215C11.73 9.58215 11.77 9.91215 11.84 10.2221C8.28 10.0421 5.11 8.33215 3 5.74215C2.63 6.37215 2.42 7.11215 2.42 7.89215C2.42 9.38215 3.17 10.7021 4.33 11.4521C3.62 11.4521 2.96 11.2521 2.38 10.9521V10.9821C2.38 13.0621 3.86 14.8021 5.82 15.1921C5.19073 15.3644 4.5301 15.3883 3.89 15.2621C4.16161 16.1146 4.69354 16.8606 5.41102 17.3951C6.1285 17.9296 6.99545 18.2258 7.89 18.2421C6.37363 19.4426 4.494 20.0915 2.56 20.0821C2.22 20.0821 1.88 20.0621 1.54 20.0221C3.44 21.2421 5.7 21.9521 8.12 21.9521C16 21.9521 20.33 15.4121 20.33 9.74215C20.33 9.55215 20.33 9.37215 20.32 9.18215C21.16 8.58215 21.88 7.82215 22.46 6.95215Z" fill="#F7C35F"/>
</svg>
