<svg width="24" height="25" viewBox="0 0 24 25" fill="none" xmlns="http://www.w3.org/2000/svg">
<path d="M10 15.9521L15.19 12.9521L10 9.95215V15.9521ZM21.56 8.12215C21.69 8.59215 21.78 9.22215 21.84 10.0221C21.91 10.8221 21.94 11.5121 21.94 12.1121L22 12.9521C22 15.1421 21.84 16.7521 21.56 17.7821C21.31 18.6821 20.73 19.2621 19.83 19.5121C19.36 19.6421 18.5 19.7321 17.18 19.7921C15.88 19.8621 14.69 19.8921 13.59 19.8921L12 19.9521C7.81 19.9521 5.2 19.7921 4.17 19.5121C3.27 19.2621 2.69 18.6821 2.44 17.7821C2.31 17.3121 2.22 16.6821 2.16 15.8821C2.09 15.0821 2.06 14.3921 2.06 13.7921L2 12.9521C2 10.7621 2.16 9.15215 2.44 8.12215C2.69 7.22215 3.27 6.64215 4.17 6.39215C4.64 6.26215 5.5 6.17215 6.82 6.11215C8.12 6.04215 9.31 6.01215 10.41 6.01215L12 5.95215C16.19 5.95215 18.8 6.11215 19.83 6.39215C20.73 6.64215 21.31 7.22215 21.56 8.12215Z" fill="#F7C35F"/>
</svg>
