<svg width="50" height="50" viewBox="0 0 50 50" fill="none" xmlns="http://www.w3.org/2000/svg">
<path d="M49.581 45.6491L46.027 43.1538C45.7247 42.9417 45.3335 42.9156 45.0059 43.0859C44.6782 43.2562 44.4747 43.5913 44.4747 43.9606V45.7225H37.3056V35.9226H38.1662C41.1703 35.9226 43.6143 33.4787 43.6143 30.4746V30.2032C43.6143 29.3092 42.8868 28.5817 41.9928 28.5817H41.2867C39.7168 28.5817 38.3007 29.2501 37.3056 30.3161V23.5586H39.4166C43.0145 23.5586 45.9417 20.6315 45.9417 17.0336C45.9417 16.3326 45.3714 15.7622 44.6704 15.7622H41.8259C41.7929 15.7622 41.7601 15.7632 41.7274 15.7643L41.6924 15.7653C41.2874 15.7741 40.9663 16.1097 40.9752 16.5147C40.9841 16.9196 41.3186 17.2436 41.7245 17.2319L41.7769 17.2303C41.7933 17.2298 41.8095 17.2291 41.8259 17.2291H44.471C44.3677 19.9278 42.1402 22.0916 39.4166 22.0916H37.3056V21.7494C37.3056 20.3546 37.9362 19.059 39.0359 18.1945C39.3544 17.9442 39.4096 17.4831 39.1593 17.1645C38.909 16.846 38.4478 16.7909 38.1294 17.0412C37.3401 17.6617 36.7351 18.4512 36.345 19.3377C35.5669 18.3892 34.3864 17.7827 33.0667 17.7827H31.7165C30.8691 17.7827 30.1797 18.4721 30.1797 19.3195C30.1797 21.6569 32.0813 23.5585 34.4186 23.5585H35.8388V34.0297V35.189V45.7223H30.9794C30.5742 45.7223 30.2459 46.0507 30.2459 46.4557C30.2459 46.8608 30.5742 47.1892 30.9794 47.1892H44.4748V48.9511C44.4748 49.3203 44.6783 49.6556 45.006 49.8259C45.1498 49.9006 45.3057 49.9375 45.4611 49.9375C45.6598 49.9375 45.8576 49.8771 46.0271 49.758L49.5811 47.2627C49.8438 47.0783 50.0005 46.7766 50.0005 46.4558C50.0004 46.1352 49.8436 45.8336 49.581 45.6491ZM31.6467 19.3197C31.6467 19.2812 31.678 19.2499 31.7165 19.2499H33.0667C34.5952 19.2499 35.8388 20.4934 35.8388 22.0219V22.0918H34.4186C32.8902 22.0918 31.6467 20.8483 31.6467 19.3197ZM41.2867 30.0488H41.9928C42.078 30.0488 42.1473 30.118 42.1473 30.2033V30.4747C42.1473 32.6699 40.3614 34.4558 38.1662 34.4558H37.3056V34.03C37.3056 31.8347 39.0915 30.0488 41.2867 30.0488ZM45.9417 48.0257V44.8864L48.1772 46.456L45.9417 48.0257Z" fill="#F7C35F"/>
<path d="M27.853 45.7225H25.7826V36.952H26.8607C29.6122 36.952 31.8506 34.7135 31.8506 31.9622V31.1166C31.8506 30.1794 31.0882 29.4171 30.1511 29.4171H29.3055C27.3091 29.4171 25.5836 30.5961 24.7865 32.294C24.1386 31.621 23.2298 31.2009 22.2241 31.2009H21.2989C20.5999 31.2009 20.0312 31.7696 20.0312 32.4686V33.3937C20.0312 35.3558 21.6275 36.9521 23.5897 36.9521H24.3156V45.7226H15.2391V43.2353H15.7823C18.0515 43.2353 19.8977 41.3891 19.8977 39.1198V38.2131C19.8977 37.4033 19.2389 36.7443 18.4289 36.7443H17.8876C16.3411 36.7443 14.9918 37.6021 14.2886 38.8666C13.7073 38.2892 12.9072 37.9318 12.025 37.9318H11.3126C10.6792 37.9318 10.164 38.4471 10.164 39.0803V40.0212C10.164 41.7934 11.6058 43.2352 13.378 43.2352H13.7721V45.7225H4.512V39.1856H5.25976C5.66494 39.1856 5.99324 38.8572 5.99324 38.4521C5.99324 38.0471 5.66494 37.7187 5.25976 37.7187H4.512V32.1292H5.25976C5.66494 32.1292 5.99324 31.8008 5.99324 31.3957C5.99324 30.9907 5.66494 30.6623 5.25976 30.6623H4.512V25.0729H5.25976C5.66494 25.0729 5.99324 24.7445 5.99324 24.3394C5.99324 23.9344 5.66494 23.606 5.25976 23.606H4.512V18.0166H5.25976C5.66494 18.0166 5.99324 17.6882 5.99324 17.2831C5.99324 16.878 5.66494 16.5496 5.25976 16.5496H4.512V10.9602H5.25976C5.66494 10.9602 5.99324 10.6318 5.99324 10.2267C5.99324 9.82164 5.66494 9.49324 5.25976 9.49324H4.512V5.58769H6.27392C6.64311 5.58769 6.97826 5.38417 7.14853 5.05655C7.31889 4.72892 7.29298 4.33763 7.08076 4.03524L4.58544 0.481369C4.4011 0.218879 4.09959 0.0621095 3.77881 0.0620117C3.77871 0.0620117 3.77861 0.0620117 3.77852 0.0620117C3.45784 0.0620117 3.15623 0.218684 2.97168 0.481369L0.476373 4.03524C0.264152 4.33744 0.23804 4.72873 0.408404 5.05645C0.578767 5.38417 0.91392 5.58769 1.2832 5.58769H3.04503V45.7225H0.733483C0.328307 45.7225 0 46.0509 0 46.456C0 46.8611 0.328307 47.1895 0.733483 47.1895H27.853C28.2582 47.1895 28.5865 46.8611 28.5865 46.456C28.5865 46.0509 28.2581 45.7225 27.853 45.7225ZM25.7826 34.4069C25.7826 32.4644 27.3629 30.8841 29.3055 30.8841H30.1511C30.2794 30.8841 30.3836 30.9884 30.3836 31.1166V31.9622C30.3836 33.9047 28.8033 35.4851 26.8607 35.4851H25.7826V34.7592V34.4069ZM21.4983 33.3937V32.6678H22.2242C23.3774 32.6678 24.3157 33.6061 24.3157 34.7593V35.4852H23.5898C22.4366 35.4852 21.4983 34.5469 21.4983 33.3937ZM15.2392 40.8598C15.2392 39.3994 16.4273 38.2114 17.8877 38.2114L18.4309 38.2132V39.1199C18.4309 40.5803 17.2428 41.7685 15.7824 41.7685H15.2392V41.146V40.8598ZM11.6312 40.0213V39.3988H12.0252C12.9886 39.3988 13.7723 40.1826 13.7723 41.1459V41.7684H13.3781C12.4148 41.7684 11.6312 40.9846 11.6312 40.0213ZM3.77852 1.88506L5.34827 4.12072H2.20876L3.77852 1.88506Z" fill="#F7C35F"/>
<path d="M36.1457 4.49572L33.1076 4.12604C32.7057 4.07715 32.3397 4.3634 32.2908 4.76564C32.2419 5.16779 32.5282 5.53345 32.9303 5.58235L34.2191 5.73912L21.0376 16.1342L20.4627 14.9049C20.3669 14.6999 20.1818 14.5506 19.9611 14.5004C19.7407 14.4505 19.509 14.5045 19.3338 14.6479L8.05033 23.8787C7.73679 24.1353 7.69053 24.5974 7.94705 24.9109C8.09209 25.0881 8.30284 25.18 8.51516 25.18C8.67858 25.18 8.84298 25.1257 8.97921 25.0142L19.5332 16.3801L20.1007 17.5939C20.1955 17.7968 20.3779 17.9452 20.5958 17.9969C20.8136 18.0485 21.0433 17.9979 21.2193 17.8591L35.3238 6.73646V8.45594C35.3238 8.86102 35.6521 9.18943 36.0573 9.18943C36.4624 9.18943 36.7908 8.86102 36.7908 8.45594V5.22392C36.7908 4.81503 36.4645 4.53464 36.1457 4.49572Z" fill="#F7C35F"/>
</svg>
